<svg width="157" height="45" viewBox="0 0 157 45" fill="none" xmlns="http://www.w3.org/2000/svg">
<path d="M10.8849 34.5402C8.69398 34.5402 6.69816 34.2551 4.89742 33.6849C3.09668 33.0846 1.58106 32.3043 0.350555 31.3439L2.51144 27.7424C3.59189 28.6428 4.80739 29.3781 6.15794 29.9483C7.50849 30.5186 9.08414 30.8037 10.8849 30.8037C13.0458 30.8037 14.7565 30.3535 16.017 29.4531C17.2775 28.5528 17.9078 27.3373 17.9078 25.8066C17.9078 24.9363 17.7277 24.171 17.3675 23.5107C17.0074 22.8204 16.3021 22.1601 15.2517 21.5299C14.2313 20.8696 12.7156 20.1643 10.7048 19.414C8.54392 18.5737 6.81821 17.7333 5.52768 16.893C4.23715 16.0226 3.30677 15.0472 2.73653 13.9668C2.19631 12.8563 1.9262 11.5508 1.9262 10.0502C1.9262 8.54955 2.33137 7.19899 3.1417 5.9985C3.98205 4.76799 5.19755 3.79259 6.7882 3.0723C8.40886 2.32199 10.3597 1.94684 12.6406 1.94684C14.5014 1.94684 16.1671 2.14192 17.6377 2.53208C19.1383 2.89222 20.5939 3.41744 22.0044 4.10772L20.4288 7.75422C19.4084 7.15397 18.2079 6.65877 16.8273 6.26861C15.4768 5.84844 14.0512 5.63835 12.5506 5.63835C10.5698 5.63835 9.00911 6.02851 7.86864 6.80883C6.72817 7.58915 6.15794 8.59457 6.15794 9.82507C6.15794 10.6054 6.32301 11.2957 6.65314 11.8959C6.98328 12.4962 7.62854 13.0814 8.58894 13.6516C9.57934 14.2219 11.0499 14.8671 13.0008 15.5874C15.3417 16.4578 17.1875 17.3732 18.538 18.3336C19.9186 19.294 20.894 20.3444 21.4642 21.4849C22.0345 22.5953 22.3196 23.8708 22.3196 25.3114C22.3196 27.2622 21.8244 28.9279 20.834 30.3085C19.8736 31.6891 18.523 32.7395 16.7823 33.4598C15.0716 34.1801 13.1058 34.5402 10.8849 34.5402ZM28.1882 34V0.68632H32.2398V14.3269C33.0802 13.0964 34.1456 12.076 35.4361 11.2657C36.7267 10.4553 38.2423 10.0502 39.983 10.0502C42.6241 10.0502 44.5899 10.8455 45.8804 12.4361C47.201 14.0268 47.8612 16.1277 47.8612 18.7387V34H43.8096V19.1889C43.8096 17.5082 43.4194 16.1577 42.6391 15.1373C41.8588 14.1168 40.7633 13.6066 39.3527 13.6066C37.9722 13.6066 36.6516 14.1018 35.3911 15.0922C34.1606 16.0526 33.1102 17.1931 32.2398 18.5136V34H28.1882ZM63.7886 34.5402C61.8378 34.5402 60.0671 34.045 58.4765 33.0546C56.8858 32.0642 55.6103 30.6686 54.6499 28.8679C53.7195 27.0371 53.2543 24.8913 53.2543 22.4302C53.2543 20.0893 53.7195 17.9884 54.6499 16.1277C55.6103 14.2669 56.9158 12.7963 58.5665 11.7158C60.2472 10.6054 62.168 10.0502 64.3289 10.0502C65.6794 10.0502 66.8949 10.2903 67.9754 10.7705C69.0858 11.2206 70.0462 11.7909 70.8565 12.4812V10.5904H74.5481V28.3277C74.5481 29.4681 74.8182 30.2184 75.3584 30.5786C75.9286 30.9087 76.5439 31.0738 77.2041 31.0738L76.3488 34.2251C73.4676 34.2251 71.7269 33.0546 71.1266 30.7137C70.4364 31.674 69.491 32.5594 68.2905 33.3697C67.12 34.1501 65.6194 34.5402 63.7886 34.5402ZM64.689 30.9387C65.8295 30.9387 66.9099 30.6686 67.9303 30.1284C68.9508 29.5582 69.8061 28.8529 70.4964 28.0125V15.4524C69.6861 14.8821 68.7857 14.432 67.7953 14.1018C66.8349 13.7417 65.8145 13.5616 64.734 13.5616C63.2934 13.5616 62.0179 13.9368 60.9075 14.6871C59.827 15.4074 58.9717 16.4278 58.3414 17.7483C57.7111 19.0389 57.396 20.5545 57.396 22.2952C57.396 23.9759 57.7111 25.4765 58.3414 26.797C58.9717 28.0876 59.842 29.108 60.9525 29.8583C62.0629 30.5786 63.3084 30.9387 64.689 30.9387ZM82.6148 34V10.5904H86.5314V15.6775C86.9216 14.6871 87.4468 13.7717 88.1071 12.9313C88.7673 12.061 89.5927 11.3707 90.5831 10.8605C91.5735 10.3203 92.729 10.0502 94.0495 10.0502C94.4997 10.0502 94.9499 10.0802 95.4001 10.1402C95.8502 10.1702 96.2254 10.2302 96.5255 10.3203L95.31 14.507C94.7398 14.2669 94.0645 14.1468 93.2842 14.1468C92.1737 14.1468 91.1083 14.462 90.0879 15.0922C89.0975 15.7225 88.2721 16.6979 87.6119 18.0184C86.9816 19.339 86.6665 21.0197 86.6665 23.0605V34H82.6148ZM108.597 34.5402C105.235 34.5402 102.564 33.4748 100.584 31.3439C98.6327 29.183 97.6573 26.1668 97.6573 22.2952C97.6573 19.9542 98.0925 17.8684 98.9628 16.0376C99.8632 14.1769 101.109 12.7213 102.699 11.6708C104.29 10.5904 106.136 10.0502 108.237 10.0502C110.488 10.0502 112.348 10.5454 113.819 11.5358C115.32 12.4962 116.445 13.8017 117.195 15.4524C117.946 17.1031 118.321 18.9188 118.321 20.8996C118.321 21.9501 118.276 22.9705 118.186 23.9609H101.799C102.069 26.1518 102.834 27.8625 104.095 29.093C105.355 30.3235 107.021 30.9387 109.092 30.9387C110.443 30.9387 111.658 30.8037 112.739 30.5336C113.819 30.2335 114.854 29.8583 115.845 29.4081L116.79 32.8745C115.71 33.3547 114.494 33.7449 113.144 34.045C111.793 34.3752 110.277 34.5402 108.597 34.5402ZM101.754 20.6745H114.584C114.584 18.3936 114.014 16.6379 112.874 15.4074C111.733 14.1769 110.157 13.5616 108.147 13.5616C106.406 13.5616 104.965 14.1769 103.825 15.4074C102.684 16.6079 101.994 18.3636 101.754 20.6745Z" fill="white"/>
<path d="M130.833 34.5402C129.453 34.5402 128.207 34.2851 127.097 33.7749C125.986 33.2347 125.101 32.3793 124.441 31.2089C123.811 30.0384 123.495 28.5228 123.495 26.662V0.68632H127.547V26.2568C127.547 27.8775 127.877 29.078 128.538 29.8583C129.228 30.6386 130.173 31.0288 131.374 31.0288C131.944 31.0288 132.499 30.9688 133.039 30.8487C133.61 30.6986 134.09 30.5336 134.48 30.3535L135.47 33.6399C134.93 33.88 134.255 34.09 133.445 34.2701C132.664 34.4502 131.794 34.5402 130.833 34.5402ZM138.066 44.4443C137.166 44.4443 136.371 44.3543 135.68 44.1742C135.02 43.9941 134.495 43.784 134.105 43.5439L135.005 40.1675C135.365 40.3776 135.815 40.5577 136.356 40.7078C136.896 40.8578 137.496 40.9328 138.156 40.9328C139.417 40.9328 140.542 40.5277 141.533 39.7173C142.523 38.907 143.469 37.3164 144.369 34.9454L145.404 32.2443H143.243L134.105 11.6708L137.706 10.0502L146.44 29.5432L153.238 10.2302L156.974 11.6708L148.376 35.1705C147.505 37.5715 146.56 39.4472 145.539 40.7978C144.519 42.1483 143.394 43.0937 142.163 43.634C140.933 44.1742 139.567 44.4443 138.066 44.4443Z" fill="#80B6FF"/>
</svg>
